0
SECTION
2
HEADER
9
$INSUNITS
70
6
0
ENDSEC
0
SECTION
2
TABLES
0
TABLE
2
LAYER
70
9
0
LAYER
2
EXISTING_WALLS
70
0
62
7
6
CONTINUOUS
0
LAYER
2
PROPOSED_EXTENSION
70
0
62
5
6
CONTINUOUS
0
LAYER
2
OPENINGS
70
0
62
4
6
CONTINUOUS
0
LAYER
2
FURNITURE
70
0
62
3
6
CONTINUOUS
0
LAYER
2
ANNOTATION
70
0
62
2
6
CONTINUOUS
0
LAYER
2
ELECTRICAL_POWER
70
0
62
2
6
CONTINUOUS
0
LAYER
2
LIGHTING
70
0
62
2
6
CONTINUOUS
0
LAYER
2
PLUMBING_WASTE
70
0
62
5
6
CONTINUOUS
0
LAYER
2
HVAC_VENT
70
0
62
4
6
CONTINUOUS
0
ENDTAB
0
ENDSEC
0
SECTION
2
ENTITIES
0
LWPOLYLINE
8
EXISTING_WALLS
90
4
70
1
10
0
20
0
10
8
20
0
10
8
20
9.6
10
0
20
9.6
0
LWPOLYLINE
8
EXISTING_WALLS
90
4
70
1
10
0.25
20
0.25
10
7.75
20
0.25
10
7.75
20
9.35
10
0.25
20
9.35
0
LWPOLYLINE
8
EXISTING_WALLS
90
4
70
1
10
2.2
20
0
10
5.8
20
0
10
5.45
20
-1
10
2.55
20
-1
0
LINE
8
EXISTING_WALLS
10
0.25
20
3.2
11
7.75
21
3.2
0
LINE
8
EXISTING_WALLS
10
0.25
20
6.2
11
7.75
21
6.2
0
LINE
8
EXISTING_WALLS
10
3.85
20
0.25
11
3.85
21
9.35
0
LINE
8
EXISTING_WALLS
10
5.65
20
3.2
11
5.65
21
6.2
0
LINE
8
EXISTING_WALLS
10
2.1
20
6.2
11
2.1
21
9.35
0
LWPOLYLINE
8
EXISTING_WALLS
90
4
70
1
10
3.25
20
3.55
10
3.95
20
3.55
10
3.95
20
4.9
10
3.25
20
4.9
0
LWPOLYLINE
8
EXISTING_WALLS
90
4
70
1
10
7.35
20
1.2
10
7.75
20
1.2
10
7.75
20
3
10
7.35
20
3
0
LWPOLYLINE
8
EXISTING_WALLS
90
4
70
1
10
0.25
20
6.2
10
2.1
20
6.2
10
2.1
20
9.35
10
0.25
20
9.35
0
LWPOLYLINE
8
PROPOSED_EXTENSION
90
4
70
1
10
0
20
9.6
10
8
20
9.6
10
8
20
14.2
10
0
20
14.2
0
LWPOLYLINE
8
PROPOSED_EXTENSION
90
4
70
1
10
0.25
20
9.85
10
7.75
20
9.85
10
7.75
20
13.95
10
0.25
20
13.95
0
LINE
8
PROPOSED_EXTENSION
10
2.85
20
9.85
11
2.85
21
13.95
0
LINE
8
PROPOSED_EXTENSION
10
5.55
20
9.85
11
5.55
21
13.95
0
LWPOLYLINE
8
PROPOSED_EXTENSION
90
4
70
1
10
3.25
20
11.05
10
5.05
20
11.05
10
5.05
20
12.100000000000001
10
3.25
20
12.100000000000001
0
LWPOLYLINE
8
PROPOSED_EXTENSION
90
4
70
1
10
6.05
20
10.2
10
7.1
20
10.2
10
7.1
20
13
10
6.05
20
13
0
LINE
8
PROPOSED_EXTENSION
10
0
20
14.2
11
8
21
14.2
0
LINE
8
OPENINGS
10
2.75
20
-1
11
5.25
21
-1
0
LINE
8
OPENINGS
10
0
20
1.1
11
0
21
2.3
0
LINE
8
OPENINGS
10
8
20
1.25
11
8
21
2.65
0
LINE
8
OPENINGS
10
0
20
4.05
11
0
21
5.3
0
LINE
8
OPENINGS
10
8
20
4.1
11
8
21
5.25
0
LINE
8
OPENINGS
10
1
20
9.6
11
3.05
21
9.6
0
LINE
8
OPENINGS
10
4.9
20
9.6
11
7
21
9.6
0
LINE
8
OPENINGS
10
1.1
20
14.2
11
3.4
21
14.2
0
LINE
8
OPENINGS
10
4.4
20
14.2
11
7.25
21
14.2
0
LINE
8
OPENINGS
10
3.85
20
1.45
11
4.75
21
1.45
0
LINE
8
OPENINGS
10
3.85
20
7
11
4.75
21
7
0
LINE
8
OPENINGS
10
5.65
20
4.1
11
6.55
21
4.1
0
LINE
8
OPENINGS
10
2.1
20
7.2
11
2.9
21
7.2
0
LWPOLYLINE
8
FURNITURE
90
4
70
1
10
0.75
20
0.65
10
2.9
20
0.65
10
2.9
20
1.5
10
0.75
20
1.5
0
LWPOLYLINE
8
FURNITURE
90
4
70
1
10
0.75
20
1.75
10
1.47
20
1.75
10
1.47
20
2.4699999999999998
10
0.75
20
2.4699999999999998
0
LWPOLYLINE
8
FURNITURE
90
4
70
1
10
2
20
1.75
10
2.7199999999999998
20
1.75
10
2.7199999999999998
20
2.4699999999999998
10
2
20
2.4699999999999998
0
LWPOLYLINE
8
FURNITURE
90
4
70
1
10
4.35
20
0.75
10
6.949999999999999
20
0.75
10
6.949999999999999
20
1.95
10
4.35
20
1.95
0
LWPOLYLINE
8
FURNITURE
90
4
70
1
10
4.55
20
2.25
10
6.35
20
2.25
10
6.35
20
2.8
10
4.55
20
2.8
0
LWPOLYLINE
8
FURNITURE
90
4
70
1
10
0.7
20
3.75
10
3
20
3.75
10
3
20
4.45
10
0.7
20
4.45
0
LWPOLYLINE
8
FURNITURE
90
4
70
1
10
0.7
20
5
10
3
20
5
10
3
20
5.7
10
0.7
20
5.7
0
LWPOLYLINE
8
FURNITURE
90
4
70
1
10
4.35
20
3.65
10
4.97
20
3.65
10
4.97
20
5.45
10
4.35
20
5.45
0
LWPOLYLINE
8
FURNITURE
90
4
70
1
10
5.1
20
5.1
10
7.199999999999999
20
5.1
10
7.199999999999999
20
5.6499999999999995
10
5.1
20
5.6499999999999995
0
LWPOLYLINE
8
FURNITURE
90
4
70
1
10
0.65
20
6.75
10
1.7000000000000002
20
6.75
10
1.7000000000000002
20
8.35
10
0.65
20
8.35
0
LWPOLYLINE
8
FURNITURE
90
4
70
1
10
2.45
20
6.75
10
3.5
20
6.75
10
3.5
20
8.35
10
2.45
20
8.35
0
LWPOLYLINE
8
FURNITURE
90
4
70
1
10
4.35
20
6.65
10
6.55
20
6.65
10
6.55
20
8
10
4.35
20
8
0
LWPOLYLINE
8
FURNITURE
90
4
70
1
10
6.75
20
6.55
10
7.5
20
6.55
10
7.5
20
7.6
10
6.75
20
7.6
0
LWPOLYLINE
8
FURNITURE
90
4
70
1
10
0.6
20
10.3
10
2.5
20
10.3
10
2.5
20
12.65
10
0.6
20
12.65
0
LWPOLYLINE
8
FURNITURE
90
4
70
1
10
3.15
20
10.3
10
5.15
20
10.3
10
5.15
20
11.350000000000001
10
3.15
20
11.350000000000001
0
LWPOLYLINE
8
FURNITURE
90
4
70
1
10
3.25
20
12.45
10
5.1
20
12.45
10
5.1
20
13.549999999999999
10
3.25
20
13.549999999999999
0
LWPOLYLINE
8
FURNITURE
90
4
70
1
10
6.15
20
10.35
10
6.970000000000001
20
10.35
10
6.970000000000001
20
11.17
10
6.15
20
11.17
0
LWPOLYLINE
8
FURNITURE
90
4
70
1
10
6.95
20
10.35
10
7.5
20
10.35
10
7.5
20
11.7
10
6.95
20
11.7
0
LWPOLYLINE
8
FURNITURE
90
4
70
1
10
6.2
20
12.5
10
7.4
20
12.5
10
7.4
20
13.1
10
6.2
20
13.1
0
CIRCLE
8
FURNITURE
10
6.55
20
11.55
40
0.22
0
CIRCLE
8
FURNITURE
10
7.1
20
11.55
40
0.22
0
TEXT
8
ANNOTATION
10
0.2
20
-1.75
40
0.2
1
Front bay / existing entrance
0
TEXT
8
ANNOTATION
10
0.75
20
2.85
40
0.24
1
Living room
0
TEXT
8
ANNOTATION
10
4.35
20
2.85
40
0.24
1
Reception
0
TEXT
8
ANNOTATION
10
0.75
20
5.85
40
0.24
1
Dining
0
TEXT
8
ANNOTATION
10
4.35
20
5.85
40
0.24
1
Kitchen
0
TEXT
8
ANNOTATION
10
0.65
20
9.1
40
0.2
1
Utility / WC
0
TEXT
8
ANNOTATION
10
4.35
20
8.95
40
0.22
1
Bedroom / study
0
TEXT
8
ANNOTATION
10
0.55
20
13.6
40
0.25
1
Proposed family room extension
0
TEXT
8
ANNOTATION
10
6
20
13.55
40
0.2
1
Shower / plant
0
TEXT
8
ANNOTATION
10
0
20
15.15
40
0.22
1
PlanningOS full-service CAD demo - all layers visible
0
TEXT
8
ANNOTATION
10
8.45
20
0
40
0.18
1
EXISTING_WALLS
0
TEXT
8
ANNOTATION
10
8.45
20
9.7
40
0.18
1
PROPOSED_EXTENSION
0
TEXT
8
ANNOTATION
10
-1.2
20
4.7
40
0.18
1
8.00m
0
TEXT
8
ANNOTATION
10
3.25
20
14.7
40
0.18
1
12.60m total rear depth incl. extension
0
LWPOLYLINE
8
ELECTRICAL_POWER
90
5
70
0
10
0.65
20
0.65
10
7.35
20
0.65
10
7.35
20
9
10
0.65
20
9
10
0.65
20
0.65
0
LWPOLYLINE
8
ELECTRICAL_POWER
90
5
70
0
10
0.65
20
10.15
10
7.35
20
10.15
10
7.35
20
13.65
10
0.65
20
13.65
10
0.65
20
10.15
0
CIRCLE
8
ELECTRICAL_POWER
10
0.85
20
1
40
0.12
0
CIRCLE
8
ELECTRICAL_POWER
10
3.35
20
0.75
40
0.12
0
CIRCLE
8
ELECTRICAL_POWER
10
7.1
20
1
40
0.12
0
CIRCLE
8
ELECTRICAL_POWER
10
0.85
20
4.2
40
0.12
0
CIRCLE
8
ELECTRICAL_POWER
10
3.35
20
5.7
40
0.12
0
CIRCLE
8
ELECTRICAL_POWER
10
7.1
20
5.65
40
0.12
0
CIRCLE
8
ELECTRICAL_POWER
10
0.85
20
8.75
40
0.12
0
CIRCLE
8
ELECTRICAL_POWER
10
3.35
20
8.75
40
0.12
0
CIRCLE
8
ELECTRICAL_POWER
10
7.1
20
8.75
40
0.12
0
CIRCLE
8
ELECTRICAL_POWER
10
0.85
20
10.45
40
0.12
0
CIRCLE
8
ELECTRICAL_POWER
10
2.65
20
13.45
40
0.12
0
CIRCLE
8
ELECTRICAL_POWER
10
5.65
20
10.45
40
0.12
0
CIRCLE
8
ELECTRICAL_POWER
10
7.1
20
13.4
40
0.12
0
CIRCLE
8
ELECTRICAL_POWER
10
5.45
20
5.45
40
0.16
0
CIRCLE
8
ELECTRICAL_POWER
10
6.85
20
12.95
40
0.16
0
LINE
8
LIGHTING
10
1.1
20
2.45
11
7
21
2.45
0
LINE
8
LIGHTING
10
1.1
20
5.25
11
7
21
5.25
0
LINE
8
LIGHTING
10
1.1
20
7.9
11
7
21
7.9
0
LINE
8
LIGHTING
10
1.1
20
12.3
11
7
21
12.3
0
CIRCLE
8
LIGHTING
10
2
20
2.45
40
0.22
0
CIRCLE
8
LIGHTING
10
6
20
2.45
40
0.22
0
CIRCLE
8
LIGHTING
10
2
20
5.25
40
0.22
0
CIRCLE
8
LIGHTING
10
6
20
5.25
40
0.22
0
CIRCLE
8
LIGHTING
10
1.25
20
7.9
40
0.22
0
CIRCLE
8
LIGHTING
10
4.95
20
7.9
40
0.22
0
CIRCLE
8
LIGHTING
10
1.75
20
12.3
40
0.22
0
CIRCLE
8
LIGHTING
10
4.25
20
12.3
40
0.22
0
CIRCLE
8
LIGHTING
10
6.75
20
12.3
40
0.22
0
LWPOLYLINE
8
LIGHTING
90
4
70
1
10
3.65
20
1.1
10
3.83
20
1.1
10
3.83
20
1.4000000000000001
10
3.65
20
1.4000000000000001
0
LWPOLYLINE
8
LIGHTING
90
4
70
1
10
3.65
20
3.55
10
3.83
20
3.55
10
3.83
20
3.8499999999999996
10
3.65
20
3.8499999999999996
0
LWPOLYLINE
8
LIGHTING
90
4
70
1
10
3.65
20
6.65
10
3.83
20
6.65
10
3.83
20
6.95
10
3.65
20
6.95
0
LWPOLYLINE
8
LIGHTING
90
4
70
1
10
7.45
20
9.85
10
7.63
20
9.85
10
7.63
20
10.15
10
7.45
20
10.15
0
LINE
8
PLUMBING_WASTE
10
6.82
20
14
11
6.82
21
4.1
0
LINE
8
PLUMBING_WASTE
10
6.82
20
5.45
11
5.3
21
5.45
0
LINE
8
PLUMBING_WASTE
10
6.82
20
12.8
11
7.4
21
12.8
0
LINE
8
PLUMBING_WASTE
10
6.82
20
11.6
11
6.45
21
11.6
0
LINE
8
PLUMBING_WASTE
10
1.2
20
8.8
11
1.2
21
6.7
0
CIRCLE
8
PLUMBING_WASTE
10
5.45
20
5.45
40
0.11
0
CIRCLE
8
PLUMBING_WASTE
10
6.55
20
11.55
40
0.11
0
CIRCLE
8
PLUMBING_WASTE
10
7.1
20
11.55
40
0.11
0
CIRCLE
8
PLUMBING_WASTE
10
1.2
20
8.3
40
0.11
0
LINE
8
HVAC_VENT
10
0.65
20
9.15
11
7.35
21
9.15
0
LINE
8
HVAC_VENT
10
0.65
20
13.85
11
7.35
21
13.85
0
LINE
8
HVAC_VENT
10
4
20
9.15
11
4
21
13.85
0
LWPOLYLINE
8
HVAC_VENT
90
4
70
1
10
1.15
20
9.15
10
1.5299999999999998
20
9.15
10
1.5299999999999998
20
9.31
10
1.15
20
9.31
0
LWPOLYLINE
8
HVAC_VENT
90
4
70
1
10
3.7
20
9.15
10
4.08
20
9.15
10
4.08
20
9.31
10
3.7
20
9.31
0
LWPOLYLINE
8
HVAC_VENT
90
4
70
1
10
6.6
20
9.15
10
6.9799999999999995
20
9.15
10
6.9799999999999995
20
9.31
10
6.6
20
9.31
0
LWPOLYLINE
8
HVAC_VENT
90
4
70
1
10
1.15
20
13.85
10
1.5299999999999998
20
13.85
10
1.5299999999999998
20
14.01
10
1.15
20
14.01
0
LWPOLYLINE
8
HVAC_VENT
90
4
70
1
10
4
20
13.85
10
4.38
20
13.85
10
4.38
20
14.01
10
4
20
14.01
0
LWPOLYLINE
8
HVAC_VENT
90
4
70
1
10
6.6
20
13.85
10
6.9799999999999995
20
13.85
10
6.9799999999999995
20
14.01
10
6.6
20
14.01
0
CIRCLE
8
HVAC_VENT
10
4
20
11.5
40
0.18
0
ENDSEC
0
EOF
